<svg width="190" height="36" viewBox="0 0 190 36" fill="none" xmlns="http://www.w3.org/2000/svg">
<path d="M76.528 17.6097L85.4317 34.3093H94.1402L76.528 1.22974L58.9159 34.3093H67.6731L76.528 17.6097Z" fill="white"/>
<path d="M76.528 17.6097L85.4317 34.3093H94.1402L76.528 1.22974L58.9159 34.3093H67.6731L76.528 17.6097Z" fill="#212121"/>
<path d="M47.6217 26.5621L47.646 1.18055H39.9377V34.3093H54.7934L58.9159 26.5621H47.6217Z" fill="white"/>
<path d="M47.6217 26.5621L47.646 1.18055H39.9377V34.3093H54.7934L58.9159 26.5621H47.6217Z" fill="#212121"/>
<path d="M18.3006 1.704e-05C14.8162 -0.00484874 11.4087 1.03246 8.50919 2.98069C5.60968 4.92891 3.34849 7.70051 2.01173 10.9448C0.674964 14.1891 0.322703 17.7602 0.999514 21.2064C1.67633 24.6526 3.35179 27.8189 5.81392 30.3048C8.27605 32.7906 11.4142 34.4843 14.8313 35.1714C18.2484 35.8586 21.7908 35.5084 25.0104 34.1651C28.2301 32.8218 30.9821 30.5459 32.9185 27.6252C34.8548 24.7045 35.8884 21.2703 35.8884 17.7572C35.8884 13.052 34.0361 8.53909 30.7385 5.20967C27.4409 1.88025 22.9674 0.00653401 18.3006 1.704e-05ZM18.3006 27.3245C16.4228 27.3294 14.5858 26.7724 13.0221 25.7241C11.4584 24.6758 10.2384 23.1833 9.51646 21.4355C8.79451 19.6878 8.60311 17.7634 8.96649 15.9059C9.32987 14.0484 10.2317 12.3414 11.5578 11.0009C12.8839 9.66044 14.5746 8.74681 16.416 8.37565C18.2574 8.0045 20.1665 8.19252 21.9019 8.91592C23.6372 9.63931 25.1206 10.8656 26.1644 12.4394C27.2081 14.0133 27.7653 15.864 27.7653 17.7572C27.7589 20.2926 26.7571 22.7223 24.9789 24.5151C23.2007 26.3079 20.7909 27.318 18.2762 27.3245H18.3006Z" fill="white"/>
<path d="M18.3006 1.704e-05C14.8162 -0.00484874 11.4087 1.03246 8.50919 2.98069C5.60968 4.92891 3.34849 7.70051 2.01173 10.9448C0.674964 14.1891 0.322703 17.7602 0.999514 21.2064C1.67633 24.6526 3.35179 27.8189 5.81392 30.3048C8.27605 32.7906 11.4142 34.4843 14.8313 35.1714C18.2484 35.8586 21.7908 35.5084 25.0104 34.1651C28.2301 32.8218 30.9821 30.5459 32.9185 27.6252C34.8548 24.7045 35.8884 21.2703 35.8884 17.7572C35.8884 13.052 34.0361 8.53909 30.7385 5.20967C27.4409 1.88025 22.9674 0.00653401 18.3006 1.704e-05ZM18.3006 27.3245C16.4228 27.3294 14.5858 26.7724 13.0221 25.7241C11.4584 24.6758 10.2384 23.1833 9.51646 21.4355C8.79451 19.6878 8.60311 17.7634 8.96649 15.9059C9.32987 14.0484 10.2317 12.3414 11.5578 11.0009C12.8839 9.66044 14.5746 8.74681 16.416 8.37565C18.2574 8.0045 20.1665 8.19252 21.9019 8.91592C23.6372 9.63931 25.1206 10.8656 26.1644 12.4394C27.2081 14.0133 27.7653 15.864 27.7653 17.7572C27.7589 20.2926 26.7571 22.7223 24.9789 24.5151C23.2007 26.3079 20.7909 27.318 18.2762 27.3245H18.3006Z" fill="#212121"/>
<path d="M118.059 3.46821C115.811 3.46821 113.995 4.03468 112.61 5.16763C111.225 6.28259 110.533 7.73025 110.533 9.5106C110.533 11.273 111.18 12.6397 112.475 13.6108C113.77 14.5819 116.423 15.7328 120.433 17.0636C124.443 18.3943 127.257 19.7791 128.876 21.2177C130.512 22.6384 131.331 24.7425 131.331 27.5299C131.331 30.3173 130.315 32.4303 128.283 33.869C126.25 35.2897 123.796 36 120.918 36C115.092 36 110.236 34.2556 106.352 30.7669L107.566 28.8786C111.252 32.1156 115.559 33.7341 120.487 33.7341C126.008 33.7341 128.768 31.6211 128.768 27.395C128.768 25.3269 128.094 23.7534 126.745 22.6744C125.414 21.5774 123.193 20.5164 120.082 19.4913C116.989 18.4663 114.912 17.738 113.851 17.3064C112.79 16.8568 111.738 16.2633 110.695 15.526C109.67 14.7887 108.959 13.9435 108.564 12.9904C108.186 12.0193 107.997 10.8144 107.997 9.37572C107.997 6.98394 108.915 5.03276 110.749 3.52216C112.601 2.01156 115.038 1.25626 118.059 1.25626C122.393 1.27425 126.367 2.20039 129.982 4.03468L129.173 6.00385C125.792 4.31342 122.087 3.46821 118.059 3.46821Z" fill="white"/>
<path d="M118.059 3.46821C115.811 3.46821 113.995 4.03468 112.61 5.16763C111.225 6.28259 110.533 7.73025 110.533 9.5106C110.533 11.273 111.18 12.6397 112.475 13.6108C113.77 14.5819 116.423 15.7328 120.433 17.0636C124.443 18.3943 127.257 19.7791 128.876 21.2177C130.512 22.6384 131.331 24.7425 131.331 27.5299C131.331 30.3173 130.315 32.4303 128.283 33.869C126.25 35.2897 123.796 36 120.918 36C115.092 36 110.236 34.2556 106.352 30.7669L107.566 28.8786C111.252 32.1156 115.559 33.7341 120.487 33.7341C126.008 33.7341 128.768 31.6211 128.768 27.395C128.768 25.3269 128.094 23.7534 126.745 22.6744C125.414 21.5774 123.193 20.5164 120.082 19.4913C116.989 18.4663 114.912 17.738 113.851 17.3064C112.79 16.8568 111.738 16.2633 110.695 15.526C109.67 14.7887 108.959 13.9435 108.564 12.9904C108.186 12.0193 107.997 10.8144 107.997 9.37572C107.997 6.98394 108.915 5.03276 110.749 3.52216C112.601 2.01156 115.038 1.25626 118.059 1.25626C122.393 1.27425 126.367 2.20039 129.982 4.03468L129.173 6.00385C125.792 4.31342 122.087 3.46821 118.059 3.46821Z" fill="#212121"/>
<path d="M157.376 35.5145H136.956V33.3565H146.774V4.89788C143.717 6.26461 140.552 7.31664 137.279 8.05395L136.713 6.40848C140.759 5.18561 144.302 3.65703 147.341 1.82274H149.202V33.3565H157.376V35.5145Z" fill="white"/>
<path d="M157.376 35.5145H136.956V33.3565H146.774V4.89788C143.717 6.26461 140.552 7.31664 137.279 8.05395L136.713 6.40848C140.759 5.18561 144.302 3.65703 147.341 1.82274H149.202V33.3565H157.376V35.5145Z" fill="#212121"/>
<path d="M189.409 35.5145H186.334L175.813 20.7592C175.364 20.1297 175.094 19.7251 175.004 19.5453C174.896 19.7251 174.618 20.1297 174.168 20.7592L163.621 35.5145H160.573L173.008 18.1696L161.031 1.82274H164.106L174.168 15.4721C174.492 15.9576 174.77 16.3802 175.004 16.7399C175.22 16.3802 175.49 15.9576 175.813 15.4721L185.875 1.82274H188.923L176.919 18.1696L189.409 35.5145Z" fill="white"/>
<path d="M189.409 35.5145H186.334L175.813 20.7592C175.364 20.1297 175.094 19.7251 175.004 19.5453C174.896 19.7251 174.618 20.1297 174.168 20.7592L163.621 35.5145H160.573L173.008 18.1696L161.031 1.82274H164.106L174.168 15.4721C174.492 15.9576 174.77 16.3802 175.004 16.7399C175.22 16.3802 175.49 15.9576 175.813 15.4721L185.875 1.82274H188.923L176.919 18.1696L189.409 35.5145Z" fill="#212121"/>
</svg>
