<svg width="292" height="29" viewBox="0 0 292 29" fill="none" xmlns="http://www.w3.org/2000/svg">
<path d="M2.00449 15.7963H9.84815C12.1722 15.7963 14.0823 15.1789 15.5784 13.9443C17.089 12.7096 17.8443 11.0973 17.8443 9.10736C17.8443 4.58999 14.9901 2.33131 9.28166 2.33131H2.00449V15.7963ZM20.5243 27.6707H18.3455L9.71743 17.67H2.00449V27.6707H0V0.457547H9.28166C16.3555 0.457547 19.8924 3.34082 19.8924 9.10736C19.8924 11.3443 19.1444 13.2325 17.6482 14.7722C16.1667 16.2974 14.2566 17.2197 11.918 17.5393L20.5243 27.4528V27.6707Z" fill="#181E22"/>
<path d="M28.7601 23.0516C30.5612 25.1433 33.1249 26.1891 36.4512 26.1891C39.7775 26.1891 42.3412 25.1433 44.1424 23.0516C45.9435 20.96 46.8441 17.9533 46.8441 14.0314C46.8441 10.1096 45.9435 7.11013 44.1424 5.03302C42.3412 2.92685 39.7775 1.87376 36.4512 1.87376C33.1249 1.87376 30.5612 2.91958 28.7601 5.01123C26.959 7.10287 26.0584 10.1096 26.0584 14.0314C26.0584 17.9533 26.959 20.96 28.7601 23.0516ZM27.2785 3.66038C29.4428 1.22013 32.5004 0 36.4512 0C40.4021 0 43.4524 1.22013 45.6022 3.66038C47.7519 6.10063 48.8341 9.56491 48.8486 14.0532C48.8486 18.5415 47.7737 22.0058 45.624 24.4461C43.4597 26.8863 40.4021 28.0919 36.4512 28.0629C32.5004 28.0629 29.4428 26.8573 27.2785 24.4461C25.1288 22.0349 24.0539 18.5779 24.0539 14.075C24.0539 9.57217 25.1288 6.10063 27.2785 3.66038Z" fill="#181E22"/>
<path d="M71.4209 17.8879L65.7124 5.0548C65.146 3.71848 64.7393 2.68718 64.4923 1.96092C64.3761 2.295 63.9912 3.32629 63.3376 5.0548L57.5856 17.8879H71.4209ZM56.823 19.7835L53.2933 27.6707H51.1145L63.2504 0.457547H65.7996L77.9355 27.6707H75.7349L72.2271 19.7835H56.823Z" fill="#181E22"/>
<path d="M84.973 25.7969H90.8122C94.5306 25.7969 97.4938 24.7874 99.7017 22.7684C101.895 20.7494 102.992 17.808 102.992 13.9443C102.992 10.0806 101.895 7.1755 99.7017 5.22911C97.4938 3.29724 94.5306 2.33131 90.8122 2.33131H84.973V25.7969ZM82.9685 0.457547H90.8122C95.1843 0.472072 98.6486 1.59778 101.205 3.83468C103.761 6.07157 105.04 9.43418 105.04 13.9225C105.04 18.4108 103.776 21.8243 101.249 24.1628C98.7067 26.5014 95.2279 27.6707 90.8122 27.6707H82.9685V0.457547Z" fill="#181E22"/>
<path d="M117.764 1.78661C115.948 1.78661 114.481 2.24416 113.363 3.15925C112.244 4.05982 111.685 5.22911 111.685 6.66711C111.685 8.09059 112.208 9.19451 113.254 9.97888C114.3 10.7632 116.442 11.6929 119.681 12.7677C122.92 13.8426 125.194 14.9611 126.501 16.1231C127.823 17.2706 128.484 18.97 128.484 21.2215C128.484 23.4729 127.663 25.1796 126.021 26.3416C124.38 27.4891 122.397 28.0629 120.073 28.0629C115.367 28.0629 111.445 26.6539 108.308 23.836L109.288 22.3109C112.266 24.9254 115.745 26.2327 119.725 26.2327C124.184 26.2327 126.414 24.526 126.414 21.1125C126.414 19.4421 125.869 18.1711 124.78 17.2996C123.705 16.4136 121.911 15.5566 119.398 14.7287C116.9 13.9007 115.222 13.3124 114.365 12.9638C113.508 12.6007 112.658 12.1214 111.816 11.5258C110.988 10.9303 110.414 10.2476 110.095 9.47776C109.789 8.69339 109.637 7.7202 109.637 6.55817C109.637 4.62631 110.378 3.05031 111.859 1.83019C113.355 0.610062 115.324 0 117.764 0C121.264 0.0145253 124.475 0.762578 127.394 2.24416L126.741 3.83468C124.01 2.4693 121.018 1.78661 117.764 1.78661Z" fill="#181E22"/>
<path d="M152.211 2.33131H141.992V27.6707H139.988V2.33131H129.769V0.457547H152.211V2.33131Z" fill="#181E22"/>
<path d="M174.151 27.6707H156.481V0.457547H173.694V2.33131H158.486V12.8549H171.907V14.7287H158.486V25.7969H174.151V27.6707Z" fill="#181E22"/>
<path d="M182.888 15.7963H190.732C193.056 15.7963 194.966 15.1789 196.462 13.9443C197.973 12.7096 198.728 11.0973 198.728 9.10736C198.728 4.58999 195.874 2.33131 190.165 2.33131H182.888V15.7963ZM201.408 27.6707H199.229L190.601 17.67H182.888V27.6707H180.884V0.457547H190.165C197.239 0.457547 200.776 3.34082 200.776 9.10736C200.776 11.3443 200.028 13.2325 198.532 14.7722C197.05 16.2974 195.14 17.2197 192.802 17.5393L201.408 27.4528V27.6707Z" fill="#181E22"/>
<path d="M226.399 16.646C232.194 16.646 235.063 14.2638 235.005 9.49954C235.005 4.7062 232.122 2.31678 226.355 2.33131H219.928V16.646H226.399ZM217.923 0.457547H226.355C233.429 0.472072 236.966 3.48607 236.966 9.49954C236.966 15.513 233.458 18.5198 226.442 18.5198H219.928V27.6707H217.923V0.457547Z" fill="#181E22"/>
<path d="M244.722 15.7963H252.566C254.89 15.7963 256.8 15.1789 258.296 13.9443C259.807 12.7096 260.562 11.0973 260.562 9.10736C260.562 4.58999 257.708 2.33131 251.999 2.33131H244.722V15.7963ZM263.242 27.6707H261.063L252.435 17.67H244.722V27.6707H242.718V0.457547H251.999C259.073 0.457547 262.61 3.34082 262.61 9.10736C262.61 11.3443 261.862 13.2325 260.366 14.7722C258.884 16.2974 256.974 17.2197 254.636 17.5393L263.242 27.4528V27.6707Z" fill="#181E22"/>
<path d="M271.478 23.0516C273.279 25.1433 275.843 26.1891 279.169 26.1891C282.495 26.1891 285.059 25.1433 286.86 23.0516C288.661 20.96 289.562 17.9533 289.562 14.0314C289.562 10.1096 288.661 7.11013 286.86 5.03302C285.059 2.92685 282.495 1.87376 279.169 1.87376C275.843 1.87376 273.279 2.91958 271.478 5.01123C269.677 7.10287 268.776 10.1096 268.776 14.0314C268.776 17.9533 269.677 20.96 271.478 23.0516ZM269.996 3.66038C272.161 1.22013 275.218 0 279.169 0C283.12 0 286.17 1.22013 288.32 3.66038C290.47 6.10063 291.552 9.56491 291.566 14.0532C291.566 18.5415 290.491 22.0058 288.342 24.4461C286.177 26.8863 283.12 28.0919 279.169 28.0629C275.218 28.0629 272.161 26.8573 269.996 24.4461C267.846 22.0349 266.772 18.5779 266.772 14.075C266.772 9.57217 267.846 6.10063 269.996 3.66038Z" fill="#181E22"/>
</svg>
