<svg width="201" height="28" viewBox="0 0 201 28" fill="none" xmlns="http://www.w3.org/2000/svg">
<path d="M2.00044 15.7606H9.82822C12.1476 15.7606 14.0538 15.1446 15.5468 13.9128C17.0544 12.6809 17.8082 11.0723 17.8082 9.08679C17.8082 4.57962 14.9598 2.32605 9.26288 2.32605H2.00044V15.7606ZM20.4827 27.6082H18.3083L9.69775 17.6301H2.00044V27.6082H0V0.456512H9.26288C16.3224 0.456512 19.8521 3.33327 19.8521 9.08679C19.8521 11.3186 19.1056 13.2027 17.6125 14.7389C16.1339 16.2606 14.2277 17.1808 11.8939 17.4997L20.4827 27.3908V27.6082Z" fill="#181E22"/>
<path d="M28.7019 22.9996C30.4994 25.0865 33.0579 26.13 36.3774 26.13C39.697 26.13 42.2555 25.0865 44.053 22.9996C45.8505 20.9127 46.7492 17.9127 46.7492 13.9997C46.7492 10.0868 45.8505 7.09407 44.053 5.02165C42.2555 2.92024 39.697 1.86953 36.3774 1.86953C33.0579 1.86953 30.4994 2.91299 28.7019 4.99991C26.9044 7.08683 26.0056 10.0868 26.0056 13.9997C26.0056 17.9127 26.9044 20.9127 28.7019 22.9996ZM27.2233 3.65211C29.3832 1.21737 32.4346 0 36.3774 0C40.3203 0 43.3644 1.21737 45.5098 3.65211C47.6552 6.08685 48.7352 9.54331 48.7497 14.0215C48.7497 18.4997 47.677 21.9561 45.5316 24.3909C43.3717 26.8256 40.3203 28.0285 36.3774 27.9995C32.4346 27.9995 29.3832 26.7966 27.2233 24.3909C25.0779 21.9851 24.0052 18.5359 24.0052 14.0432C24.0052 9.55055 25.0779 6.08685 27.2233 3.65211Z" fill="#181E22"/>
<path d="M71.2763 17.8475L65.5794 5.04338C65.0141 3.71008 64.6082 2.68111 64.3617 1.95649C64.2458 2.28981 63.8616 3.31878 63.2093 5.04338L57.469 17.8475H71.2763ZM56.7079 19.7388L53.1854 27.6082H51.011L63.1223 0.456512H65.6664L77.7777 27.6082H75.5816L72.0808 19.7388H56.7079Z" fill="#181E22"/>
<path d="M84.801 25.7387H90.6283C94.3392 25.7387 97.2964 24.7314 99.4998 22.717C101.689 20.7025 102.783 17.7678 102.783 13.9128C102.783 10.0578 101.689 7.15929 99.4998 5.2173C97.2964 3.2898 94.3392 2.32605 90.6283 2.32605H84.801V25.7387ZM82.8005 0.456512H90.6283C94.9916 0.471005 98.4488 1.59417 101 3.82602C103.551 6.05786 104.827 9.41287 104.827 13.891C104.827 18.3692 103.566 21.775 101.044 24.1083C98.5068 26.4415 95.035 27.6082 90.6283 27.6082H82.8005V0.456512Z" fill="#181E22"/>
<path d="M117.525 1.78258C115.713 1.78258 114.249 2.23909 113.133 3.15211C112.017 4.05065 111.459 5.2173 111.459 6.65205C111.459 8.07232 111.981 9.17375 113.024 9.95634C114.068 10.7389 116.206 11.6665 119.439 12.7389C122.671 13.8113 124.94 14.9273 126.245 16.0867C127.564 17.2316 128.223 18.9272 128.223 21.1735C128.223 23.4199 127.404 25.1227 125.766 26.2821C124.128 27.427 122.15 27.9995 119.83 27.9995C115.134 27.9995 111.22 26.5937 108.089 23.7822L109.067 22.2605C112.039 24.8691 115.511 26.1734 119.482 26.1734C123.933 26.1734 126.158 24.4706 126.158 21.0648C126.158 19.3982 125.614 18.1301 124.527 17.2606C123.454 16.3765 121.664 15.5215 119.156 14.6954C116.663 13.8693 114.989 13.2824 114.133 12.9345C113.278 12.5722 112.43 12.094 111.589 11.4998C110.763 10.9056 110.191 10.2245 109.872 9.45635C109.567 8.67375 109.415 7.70276 109.415 6.54336C109.415 4.61586 110.154 3.04342 111.633 1.82605C113.126 0.608685 115.09 0 117.525 0C121.019 0.0144925 124.223 0.760856 127.136 2.23909L126.484 3.82602C123.759 2.46372 120.772 1.78258 117.525 1.78258Z" fill="#181E22"/>
<path d="M151.902 2.32605H141.705V27.6082H139.704V2.32605H129.506V0.456512H151.902V2.32605Z" fill="#181E22"/>
<path d="M173.798 27.6082H156.164V0.456512H173.342V2.32605H158.165V12.8259H171.559V14.6954H158.165V25.7387H173.798V27.6082Z" fill="#181E22"/>
<path d="M182.518 15.7606H190.346C192.665 15.7606 194.571 15.1446 196.064 13.9128C197.572 12.6809 198.326 11.0723 198.326 9.08679C198.326 4.57962 195.477 2.32605 189.78 2.32605H182.518V15.7606ZM201 27.6082H198.826L190.215 17.6301H182.518V27.6082H180.517V0.456512H189.78C196.84 0.456512 200.369 3.33327 200.369 9.08679C200.369 11.3186 199.623 13.2027 198.13 14.7389C196.651 16.2606 194.745 17.1808 192.411 17.4997L201 27.3908V27.6082Z" fill="#181E22"/>
</svg>
