<svg width="36" height="33" viewBox="0 0 36 33" fill="none" xmlns="http://www.w3.org/2000/svg">
<g filter="url(#filter0_i_5571_10541)">
<path d="M34.513 15.4676L34.4313 15.3738L31.5404 12.0562L31.4832 11.9905L31.4913 11.9038L31.8967 7.56215L31.8967 7.56177C31.9722 6.76881 31.4436 6.04962 30.677 5.86951C30.6768 5.86947 30.6766 5.86942 30.6765 5.86938L26.4213 4.89892L26.3362 4.8795L26.2917 4.8044L24.0729 1.06011L24.0726 1.05965C23.6663 0.369909 22.8062 0.0958696 22.0789 0.417007L22.0787 0.417114L18.0784 2.17725L17.9965 2.21326L17.9147 2.17725L13.915 0.417394C13.9149 0.417347 13.9148 0.417299 13.9147 0.417251C13.1762 0.0955411 12.3266 0.370132 11.9204 1.05965L11.9202 1.06011L9.70134 4.8044L9.65695 4.8793L9.57211 4.89883L5.40141 5.85883L34.513 15.4676ZM34.513 15.4676L34.5508 15.4582M34.513 15.4676L34.5508 15.4582M34.5508 15.4582C34.9926 16.0501 34.967 16.8782 34.4741 17.4429L34.4735 17.4435L31.6573 20.6971L31.6006 20.7626L31.6086 20.849L32.014 25.1906L32.014 25.191C32.0897 25.9854 31.5702 26.7035 30.7943 26.8833L26.5387 27.8539L26.4534 27.8733L26.4089 27.9486L24.1901 31.7036L24.1899 31.7038C23.7833 32.3941 22.9327 32.6681 22.2049 32.3562L22.2044 32.356L18.1934 30.6492L18.1125 30.6148L18.032 30.6502L14.0317 32.4103L14.0315 32.4104C13.3042 32.7316 12.4441 32.4575 12.0378 31.7678L12.0375 31.7673L9.81868 28.0231L9.77425 27.9481L9.68931 27.9286L5.41165 26.9472L5.41029 26.9469C4.64644 26.7771 4.12547 26.0694 4.18206 25.2829C4.18207 25.2828 4.18208 25.2826 4.1821 25.2824L4.52337 20.9099L4.53002 20.8247L4.4738 20.7604L1.59358 17.4641L1.5923 17.4627C1.05369 16.8579 1.06266 15.9606 1.59244 15.3646L4.53656 12.0578L4.59531 11.9918L4.58711 11.9039L4.18175 7.55153L4.18171 7.55111C4.10607 6.75685 4.6254 6.03879 5.40112 5.8589L34.5508 15.4582ZM24.2954 22.7232L24.6422 22.3764H24.5677C24.7977 22.0266 24.9202 21.6191 24.9202 21.1928C24.9202 20.0145 23.9553 19.0374 22.7649 19.0374C21.5753 19.0374 20.6096 20.0031 20.6096 21.1928C20.6096 21.7936 20.8571 22.3352 21.2451 22.7232C21.6327 23.1108 22.1741 23.3588 22.7649 23.3588C23.3416 23.3588 23.884 23.1346 24.2954 22.7232ZM12.1884 24.4727L12.5353 24.8196V24.4026L26.0554 10.893L26.1992 10.7493L26.0555 10.6056L23.794 8.3441L23.6503 8.20042L23.5066 8.3441L9.9269 21.9238L9.78322 22.0675L9.9269 22.2112L12.1884 24.4727ZM15.3728 11.6347C15.3728 10.4564 14.4078 9.47934 13.2175 9.47934H13.2068C12.0172 9.47934 11.0515 10.4451 11.0515 11.6347C11.0515 12.2356 11.299 12.7771 11.687 13.1651C12.0746 13.5527 12.616 13.8007 13.2068 13.8007C13.7836 13.8007 14.3259 13.5765 14.7373 13.1651C15.1486 12.7538 15.3728 12.2114 15.3728 11.6347Z" fill="url(#paint0_radial_5571_10541)" stroke="url(#paint1_linear_5571_10541)" stroke-width="0.406381"/>
</g>
<defs>
<filter id="filter0_i_5571_10541" x="-0.636999" y="-1.54545" width="35.7041" height="34.2925" filterUnits="userSpaceOnUse" color-interpolation-filters="sRGB">
<feFlood flood-opacity="0" result="BackgroundImageFix"/>
<feBlend mode="normal" in="SourceGraphic" in2="BackgroundImageFix" result="shape"/>
<feColorMatrix in="SourceAlpha" type="matrix" values="0 0 0 0 0 0 0 0 0 0 0 0 0 0 0 0 0 0 127 0" result="hardAlpha"/>
<feOffset dx="-1.62552" dy="-1.62552"/>
<feGaussianBlur stdDeviation="0.812762"/>
<feComposite in2="hardAlpha" operator="arithmetic" k2="-1" k3="1"/>
<feColorMatrix type="matrix" values="0 0 0 0 0.185243 0 0 0 0 0.653528 0 0 0 0 0.808333 0 0 0 0.45 0"/>
<feBlend mode="normal" in2="shape" result="effect1_innerShadow_5571_10541"/>
</filter>
<radialGradient id="paint0_radial_5571_10541" cx="0" cy="0" r="1" gradientUnits="userSpaceOnUse" gradientTransform="translate(1.91866 2.12311) rotate(47.7487) scale(43.7367 49.9974)">
<stop stop-color="#44FFCE"/>
<stop offset="0.371684" stop-color="#0DC5D4"/>
<stop offset="1" stop-color="#2270AA"/>
</radialGradient>
<linearGradient id="paint1_linear_5571_10541" x1="32.6887" y1="31.349" x2="-0.294796" y2="0.139102" gradientUnits="userSpaceOnUse">
<stop stop-color="#50F5D5"/>
<stop offset="1" stop-color="white" stop-opacity="0"/>
</linearGradient>
</defs>
</svg>
