<svg width="42" height="30" viewBox="0 0 42 30" fill="none" xmlns="http://www.w3.org/2000/svg">
<path d="M0.777409 24.9902V10.205C0.777409 8.54646 2.11588 7.20798 3.77447 7.20798H8.77702V24.9902C8.77702 26.6488 7.43854 27.9873 5.77996 27.9873H3.77447C2.11588 27.9873 0.777409 26.6488 0.777409 24.9902Z" fill="url(#paint0_radial_7533_15975)" stroke="url(#paint1_linear_7533_15975)" stroke-width="0.406381"/>
<path d="M37.6151 19.0365L37.2194 19.391H37.7165C39.5146 20.2332 40.7741 22.0281 40.8311 24.1274L25.4137 28.94C24.781 28.7747 21.2104 27.792 17.7378 26.8339C15.9424 26.3385 14.1746 25.8501 12.8557 25.4856L11.2666 25.0463L10.8233 24.9237L10.8157 24.9216V7.19803H15.0561L20.4621 9.22262L20.6803 9.30434L20.7315 9.07703C21.7673 4.48424 25.8685 1.04288 30.7741 1.04288C36.4544 1.04288 41.0784 5.66695 41.0784 11.3472C41.0784 14.4008 39.7296 17.1417 37.6151 19.0365ZM21.8167 18.8553L21.8997 18.8865L21.9574 18.8576H30.7848C34.9293 18.8576 38.2952 15.4917 38.2952 11.3472C38.2952 7.20265 34.9293 3.83675 30.7848 3.83675C27.0453 3.83675 23.9541 6.57806 23.373 10.1411L23.3462 10.3056L23.5023 10.3641L27.1505 11.7294C27.1505 11.7295 27.1506 11.7295 27.1506 11.7295C29.3119 12.54 30.7632 14.5651 30.8447 16.8511H22.2235L18.1207 15.3179C18.1204 15.3177 18.1201 15.3176 18.1198 15.3175C17.5955 15.1164 17.0221 15.3873 16.8234 15.9039L16.8234 15.9039L16.8218 15.9082C16.636 16.4258 16.888 17.0007 17.4095 17.2013L17.411 17.2019L21.8167 18.8553Z" fill="url(#paint2_radial_7533_15975)" stroke="url(#paint3_linear_7533_15975)" stroke-width="0.406381"/>
<defs>
<radialGradient id="paint0_radial_7533_15975" cx="0" cy="0" r="1" gradientUnits="userSpaceOnUse" gradientTransform="translate(-0.2249 7.00479) rotate(69.2911) scale(23.4243 17.7141)">
<stop stop-color="#44FFCE"/>
<stop offset="0.371684" stop-color="#0DC5D4"/>
<stop offset="1" stop-color="#2270AA"/>
</radialGradient>
<linearGradient id="paint1_linear_7533_15975" x1="8.39429" y1="27.611" x2="-3.31021" y2="21.0214" gradientUnits="userSpaceOnUse">
<stop stop-color="#50F5D5"/>
<stop offset="1" stop-color="white" stop-opacity="0"/>
</linearGradient>
<radialGradient id="paint2_radial_7533_15975" cx="0" cy="0" r="1" gradientUnits="userSpaceOnUse" gradientTransform="translate(7.69698 0.839692) rotate(44.0942) scale(42.0796 48.0783)">
<stop stop-color="#44FFCE"/>
<stop offset="0.371684" stop-color="#0DC5D4"/>
<stop offset="1" stop-color="#2270AA"/>
</radialGradient>
<linearGradient id="paint3_linear_7533_15975" x1="39.1439" y1="28.3769" x2="22.4191" y2="2.66945" gradientUnits="userSpaceOnUse">
<stop stop-color="#50F5D5"/>
<stop offset="1" stop-color="white" stop-opacity="0"/>
</linearGradient>
</defs>
</svg>
