<svg width="38" height="33" viewBox="0 0 38 33" fill="none" xmlns="http://www.w3.org/2000/svg">
<mask id="path-1-inside-1_5571_10531" fill="white">
<path fill-rule="evenodd" clip-rule="evenodd" d="M35.7669 11.26H35.7349H2.26025L2.27091 11.2493H2.23891C1.03348 11.2386 0.734794 9.53185 1.81221 8.99847L18.9976 0.411133L36.1936 9.00914C37.271 9.54251 36.9723 11.2386 35.7669 11.26ZM34.9028 28.5517H35.7135C36.6309 28.5517 37.367 29.2878 37.367 30.2052V30.7599C37.367 31.6773 36.6309 32.4133 35.7135 32.4133H2.23891C1.32151 32.4133 0.585449 31.6773 0.585449 30.7599V30.2052C0.585449 29.2878 1.32151 28.5517 2.23891 28.5517H3.07098C3.07098 27.6343 3.63635 26.8449 4.44708 26.5142V14.9613C3.64702 14.6306 3.07098 13.8412 3.07098 12.9132H11.349C11.349 13.8412 10.7836 14.6306 9.97285 14.9613V26.5142C10.7729 26.8449 11.349 27.6236 11.349 28.5517H14.8479C14.8479 27.6343 15.4133 26.8449 16.224 26.5142V14.9613C15.4239 14.6306 14.8479 13.8412 14.8479 12.9132H23.1259C23.1259 13.8412 22.5605 14.6306 21.7498 14.9613V26.5142C22.5498 26.8449 23.1259 27.6236 23.1259 28.5517H26.6248C26.6248 27.6343 27.1902 26.8449 28.0009 26.5142V14.9613C27.2009 14.6306 26.6248 13.8412 26.6248 12.9132H34.9028C34.9028 13.8412 34.3374 14.6306 33.5267 14.9613V26.5142C34.3268 26.8449 34.9028 27.6236 34.9028 28.5517Z"/>
</mask>
<g filter="url(#filter0_i_5571_10531)">
<path fill-rule="evenodd" clip-rule="evenodd" d="M35.7669 11.26H35.7349H2.26025L2.27091 11.2493H2.23891C1.03348 11.2386 0.734794 9.53185 1.81221 8.99847L18.9976 0.411133L36.1936 9.00914C37.271 9.54251 36.9723 11.2386 35.7669 11.26ZM34.9028 28.5517H35.7135C36.6309 28.5517 37.367 29.2878 37.367 30.2052V30.7599C37.367 31.6773 36.6309 32.4133 35.7135 32.4133H2.23891C1.32151 32.4133 0.585449 31.6773 0.585449 30.7599V30.2052C0.585449 29.2878 1.32151 28.5517 2.23891 28.5517H3.07098C3.07098 27.6343 3.63635 26.8449 4.44708 26.5142V14.9613C3.64702 14.6306 3.07098 13.8412 3.07098 12.9132H11.349C11.349 13.8412 10.7836 14.6306 9.97285 14.9613V26.5142C10.7729 26.8449 11.349 27.6236 11.349 28.5517H14.8479C14.8479 27.6343 15.4133 26.8449 16.224 26.5142V14.9613C15.4239 14.6306 14.8479 13.8412 14.8479 12.9132H23.1259C23.1259 13.8412 22.5605 14.6306 21.7498 14.9613V26.5142C22.5498 26.8449 23.1259 27.6236 23.1259 28.5517H26.6248C26.6248 27.6343 27.1902 26.8449 28.0009 26.5142V14.9613C27.2009 14.6306 26.6248 13.8412 26.6248 12.9132H34.9028C34.9028 13.8412 34.3374 14.6306 33.5267 14.9613V26.5142C34.3268 26.8449 34.9028 27.6236 34.9028 28.5517Z" fill="url(#paint0_radial_5571_10531)"/>
</g>
<path d="M35.7669 11.26V11.6664L35.7741 11.6663L35.7669 11.26ZM2.26025 11.26L1.9729 10.9726L1.2791 11.6664H2.26025V11.26ZM2.27091 11.2493L2.55826 11.5367L3.25206 10.8429H2.27091V11.2493ZM2.23891 11.2493L2.23531 11.6557H2.23891V11.2493ZM1.81221 8.99847L1.99251 9.36267L1.99386 9.36199L1.81221 8.99847ZM18.9976 0.411133L19.1793 0.0476546L18.9976 -0.0431868L18.8159 0.0476095L18.9976 0.411133ZM36.1936 9.00914L36.0118 9.37262L36.0133 9.37333L36.1936 9.00914ZM34.9028 28.5517H34.4964V28.9581H34.9028V28.5517ZM3.07098 28.5517V28.9581H3.47736V28.5517H3.07098ZM4.44708 26.5142L4.60057 26.8905L4.85347 26.7873V26.5142H4.44708ZM4.44708 14.9613H4.85347V14.6896L4.60232 14.5857L4.44708 14.9613ZM3.07098 12.9132V12.5068H2.6646V12.9132H3.07098ZM11.349 12.9132H11.7553V12.5068H11.349V12.9132ZM9.97285 14.9613L9.81937 14.585L9.56647 14.6882V14.9613H9.97285ZM9.97285 26.5142H9.56647V26.786L9.81762 26.8898L9.97285 26.5142ZM11.349 28.5517H10.9426V28.9581H11.349V28.5517ZM14.8479 28.5517V28.9581H15.2543V28.5517H14.8479ZM16.224 26.5142L16.3775 26.8905L16.6304 26.7873V26.5142H16.224ZM16.224 14.9613H16.6304V14.6896L16.3792 14.5857L16.224 14.9613ZM14.8479 12.9132V12.5068H14.4415V12.9132H14.8479ZM23.1259 12.9132H23.5323V12.5068H23.1259V12.9132ZM21.7498 14.9613L21.5963 14.585L21.3434 14.6882V14.9613H21.7498ZM21.7498 26.5142H21.3434V26.786L21.5945 26.8898L21.7498 26.5142ZM23.1259 28.5517H22.7195V28.9581H23.1259V28.5517ZM26.6248 28.5517V28.9581H27.0312V28.5517H26.6248ZM28.0009 26.5142L28.1544 26.8905L28.4073 26.7873V26.5142H28.0009ZM28.0009 14.9613H28.4073V14.6896L28.1562 14.5857L28.0009 14.9613ZM26.6248 12.9132V12.5068H26.2184V12.9132H26.6248ZM34.9028 12.9132H35.3092V12.5068H34.9028V12.9132ZM33.5267 14.9613L33.3732 14.585L33.1203 14.6882V14.9613H33.5267ZM33.5267 26.5142H33.1203V26.786L33.3715 26.8898L33.5267 26.5142ZM35.7349 11.6664H35.7669V10.8536H35.7349V11.6664ZM2.26025 11.6664H35.7349V10.8536H2.26025V11.6664ZM1.98357 10.9619L1.9729 10.9726L2.54759 11.5473L2.55826 11.5367L1.98357 10.9619ZM2.23891 11.6557H2.27091V10.8429H2.23891V11.6557ZM1.63192 8.63427C0.903403 8.99492 0.65221 9.75177 0.769772 10.3932C0.888331 11.04 1.40023 11.6483 2.23532 11.6557L2.24251 10.8429C1.87216 10.8397 1.63201 10.5892 1.56922 10.2466C1.50543 9.89864 1.6436 9.53539 1.99251 9.36267L1.63192 8.63427ZM18.8159 0.0476095L1.63056 8.63495L1.99386 9.36199L19.1792 0.774656L18.8159 0.0476095ZM36.3753 8.64566L19.1793 0.0476546L18.8158 0.774611L36.0118 9.37262L36.3753 8.64566ZM35.7741 11.6663C36.6058 11.6516 37.1172 11.0463 37.236 10.4C37.3538 9.7588 37.1016 9.00519 36.3739 8.64494L36.0133 9.37333C36.363 9.54647 36.5001 9.9076 36.4366 10.2531C36.374 10.5936 36.1334 10.847 35.7597 10.8537L35.7741 11.6663ZM35.7135 28.1453H34.9028V28.9581H35.7135V28.1453ZM37.7734 30.2052C37.7734 29.0633 36.8554 28.1453 35.7135 28.1453V28.9581C36.4065 28.9581 36.9606 29.5122 36.9606 30.2052H37.7734ZM37.7734 30.7599V30.2052H36.9606V30.7599H37.7734ZM35.7135 32.8197C36.8554 32.8197 37.7734 31.9017 37.7734 30.7599H36.9606C36.9606 31.4528 36.4065 32.007 35.7135 32.007V32.8197ZM2.23891 32.8197H35.7135V32.007H2.23891V32.8197ZM0.179068 30.7599C0.179068 31.9017 1.09707 32.8197 2.23891 32.8197V32.007C1.54594 32.007 0.99183 31.4528 0.99183 30.7599H0.179068ZM0.179068 30.2052V30.7599H0.99183V30.2052H0.179068ZM2.23891 28.1453C1.09707 28.1453 0.179068 29.0633 0.179068 30.2052H0.99183C0.99183 29.5122 1.54595 28.9581 2.23891 28.9581V28.1453ZM3.07098 28.1453H2.23891V28.9581H3.07098V28.1453ZM4.2936 26.1379C3.33606 26.5285 2.6646 27.4626 2.6646 28.5517H3.47736C3.47736 27.806 3.93665 27.1613 4.60057 26.8905L4.2936 26.1379ZM4.0407 14.9613V26.5142H4.85347V14.9613H4.0407ZM2.6646 12.9132C2.6646 14.0142 3.3478 14.9467 4.29185 15.3369L4.60232 14.5857C3.94624 14.3146 3.47736 13.6682 3.47736 12.9132H2.6646ZM11.349 12.5068H3.07098V13.3195H11.349V12.5068ZM10.1263 15.3376C11.0849 14.9466 11.7553 14.0118 11.7553 12.9132H10.9426C10.9426 13.6707 10.4822 14.3147 9.81937 14.585L10.1263 15.3376ZM10.3792 26.5142V14.9613H9.56647V26.5142H10.3792ZM11.7553 28.5517C11.7553 27.4484 11.07 26.528 10.1281 26.1386L9.81762 26.8898C10.4759 27.1619 10.9426 27.7989 10.9426 28.5517H11.7553ZM14.8479 28.1453H11.349V28.9581H14.8479V28.1453ZM16.0705 26.1379C15.113 26.5285 14.4415 27.4626 14.4415 28.5517H15.2543C15.2543 27.806 15.7136 27.1613 16.3775 26.8905L16.0705 26.1379ZM15.8176 14.9613V26.5142H16.6304V14.9613H15.8176ZM14.4415 12.9132C14.4415 14.0142 15.1247 14.9467 16.0688 15.3369L16.3792 14.5857C15.7232 14.3146 15.2543 13.6682 15.2543 12.9132H14.4415ZM23.1259 12.5068H14.8479V13.3195H23.1259V12.5068ZM21.9033 15.3376C22.8619 14.9466 23.5323 14.0118 23.5323 12.9132H22.7195C22.7195 13.6707 22.2591 14.3147 21.5963 14.585L21.9033 15.3376ZM22.1562 26.5142V14.9613H21.3434V26.5142H22.1562ZM23.5323 28.5517C23.5323 27.4484 22.8469 26.528 21.905 26.1386L21.5945 26.8898C22.2528 27.1619 22.7195 27.7989 22.7195 28.5517H23.5323ZM26.6248 28.1453H23.1259V28.9581H26.6248V28.1453ZM27.8474 26.1379C26.8899 26.5285 26.2184 27.4626 26.2184 28.5517H27.0312C27.0312 27.806 27.4905 27.1613 28.1544 26.8905L27.8474 26.1379ZM27.5945 14.9613V26.5142H28.4073V14.9613H27.5945ZM26.2184 12.9132C26.2184 14.0142 26.9016 14.9467 27.8457 15.3369L28.1562 14.5857C27.5001 14.3146 27.0312 13.6682 27.0312 12.9132H26.2184ZM34.9028 12.5068H26.6248V13.3195H34.9028V12.5068ZM33.6802 15.3376C34.6388 14.9466 35.3092 14.0118 35.3092 12.9132H34.4964C34.4964 13.6707 34.0361 14.3147 33.3732 14.585L33.6802 15.3376ZM33.9331 26.5142V14.9613H33.1203V26.5142H33.9331ZM35.3092 28.5517C35.3092 27.4484 34.6238 26.528 33.6819 26.1386L33.3715 26.8898C34.0297 27.1619 34.4964 27.7989 34.4964 28.5517H35.3092Z" fill="url(#paint1_linear_5571_10531)" mask="url(#path-1-inside-1_5571_10531)"/>
<defs>
<filter id="filter0_i_5571_10531" x="-1.04007" y="-1.21439" width="38.407" height="33.6275" filterUnits="userSpaceOnUse" color-interpolation-filters="sRGB">
<feFlood flood-opacity="0" result="BackgroundImageFix"/>
<feBlend mode="normal" in="SourceGraphic" in2="BackgroundImageFix" result="shape"/>
<feColorMatrix in="SourceAlpha" type="matrix" values="0 0 0 0 0 0 0 0 0 0 0 0 0 0 0 0 0 0 127 0" result="hardAlpha"/>
<feOffset dx="-1.62552" dy="-1.62552"/>
<feGaussianBlur stdDeviation="0.812762"/>
<feComposite in2="hardAlpha" operator="arithmetic" k2="-1" k3="1"/>
<feColorMatrix type="matrix" values="0 0 0 0 0.185243 0 0 0 0 0.653528 0 0 0 0 0.808333 0 0 0 0.45 0"/>
<feBlend mode="normal" in2="shape" result="effect1_innerShadow_5571_10531"/>
</filter>
<radialGradient id="paint0_radial_5571_10531" cx="0" cy="0" r="1" gradientUnits="userSpaceOnUse" gradientTransform="translate(1.58936 2.41257) rotate(44.9771) scale(44.8696 51.5294)">
<stop stop-color="#44FFCE"/>
<stop offset="0.371684" stop-color="#0DC5D4"/>
<stop offset="1" stop-color="#2270AA"/>
</radialGradient>
<linearGradient id="paint1_linear_5571_10531" x1="34.7999" y1="31.0434" x2="2.46652" y2="-2.66407" gradientUnits="userSpaceOnUse">
<stop stop-color="#50F5D5"/>
<stop offset="1" stop-color="white" stop-opacity="0"/>
</linearGradient>
</defs>
</svg>
