<svg width="52" height="46" viewBox="0 0 52 46" fill="none" xmlns="http://www.w3.org/2000/svg">
<mask id="path-1-inside-1_5571_10558" fill="white">
<path fill-rule="evenodd" clip-rule="evenodd" d="M49.2402 7.80955H44.8862C44.8022 7.01155 44.1442 6.36755 43.3182 6.36755H41.4002C40.0002 6.36755 38.6422 5.89155 37.5642 4.99555L34.9742 2.88155C33.4342 1.62155 31.4882 0.935547 29.5002 0.935547H22.5142C20.5122 0.935547 18.5522 1.62155 16.9982 2.89555L14.4222 4.99555C13.3302 5.87755 11.9722 6.36755 10.5722 6.36755H8.65416C7.81416 6.36755 7.17016 7.01155 7.08616 7.80955H2.76016C1.59816 7.80955 0.660156 8.74755 0.660156 9.90955C0.660156 11.0715 1.59816 12.0095 2.76016 12.0095H7.04416V12.5135C7.04416 13.3955 7.77216 14.1235 8.65416 14.1235H11.8742C13.5402 14.1235 15.0102 15.0895 15.7942 16.5595C16.6202 18.0855 18.1462 18.9815 19.8402 18.9815L24.7122 19.5695C25.1462 19.6255 25.5802 19.6395 26.0002 19.6395C26.4202 19.6395 26.8542 19.6115 27.2882 19.5695L32.1602 18.9815C33.8262 18.9815 35.3522 18.0855 36.1782 16.6295C36.9902 15.1735 38.4322 14.1235 40.1402 14.1235H43.3602C44.2422 14.1235 44.9702 13.3955 44.9702 12.5135V12.0095H49.2542C50.4162 12.0095 51.3542 11.0715 51.3542 9.90955C51.3542 8.74755 50.4162 7.80955 49.2542 7.80955H49.2402ZM35.0302 10.2035L33.8822 12.3175C33.5322 12.9615 32.9302 13.4235 32.2162 13.6055L28.8002 14.4455C27.8902 14.6695 26.9522 14.7815 26.0142 14.7815C25.0762 14.7815 24.1382 14.6695 23.2142 14.4455L19.7982 13.6055C19.0842 13.4235 18.4822 12.9615 18.1322 12.3175L16.9842 10.2035C16.6762 9.62955 16.6342 8.94355 16.8862 8.32755L17.2642 7.40355C17.5302 6.75955 18.1742 6.32555 18.8742 6.32555H33.1402C33.8402 6.32555 34.4842 6.74555 34.7502 7.40355L35.1282 8.32755C35.3802 8.92955 35.3382 9.61555 35.0302 10.2035ZM27.5117 9.82582C27.5117 8.55182 28.5477 7.51582 29.8217 7.51582C31.0957 7.51582 32.1317 8.55182 32.1317 9.82582C32.1317 11.0998 31.0957 12.1358 29.8217 12.1358C28.5477 12.1358 27.5117 11.0998 27.5117 9.82582ZM33.1714 21.1797C36.2794 21.1797 39.0233 23.2377 39.8913 26.2197L41.7253 32.5337C43.5453 38.8057 38.8554 45.0777 32.3174 45.0777H19.6894C13.1654 45.0777 8.46135 38.8057 10.2814 32.5337L12.1154 26.2197C12.9834 23.2377 15.7274 21.1797 18.8354 21.1797H33.1714ZM19.8664 9.82582C19.8664 8.55182 20.9024 7.51582 22.1764 7.51582C23.4504 7.51582 24.4864 8.55182 24.4864 9.82582C24.4864 11.0998 23.4504 12.1358 22.1764 12.1358C20.9024 12.1358 19.8664 11.0998 19.8664 9.82582Z"/>
</mask>
<g filter="url(#filter0_i_5571_10558)">
<path fill-rule="evenodd" clip-rule="evenodd" d="M49.2402 7.80955H44.8862C44.8022 7.01155 44.1442 6.36755 43.3182 6.36755H41.4002C40.0002 6.36755 38.6422 5.89155 37.5642 4.99555L34.9742 2.88155C33.4342 1.62155 31.4882 0.935547 29.5002 0.935547H22.5142C20.5122 0.935547 18.5522 1.62155 16.9982 2.89555L14.4222 4.99555C13.3302 5.87755 11.9722 6.36755 10.5722 6.36755H8.65416C7.81416 6.36755 7.17016 7.01155 7.08616 7.80955H2.76016C1.59816 7.80955 0.660156 8.74755 0.660156 9.90955C0.660156 11.0715 1.59816 12.0095 2.76016 12.0095H7.04416V12.5135C7.04416 13.3955 7.77216 14.1235 8.65416 14.1235H11.8742C13.5402 14.1235 15.0102 15.0895 15.7942 16.5595C16.6202 18.0855 18.1462 18.9815 19.8402 18.9815L24.7122 19.5695C25.1462 19.6255 25.5802 19.6395 26.0002 19.6395C26.4202 19.6395 26.8542 19.6115 27.2882 19.5695L32.1602 18.9815C33.8262 18.9815 35.3522 18.0855 36.1782 16.6295C36.9902 15.1735 38.4322 14.1235 40.1402 14.1235H43.3602C44.2422 14.1235 44.9702 13.3955 44.9702 12.5135V12.0095H49.2542C50.4162 12.0095 51.3542 11.0715 51.3542 9.90955C51.3542 8.74755 50.4162 7.80955 49.2542 7.80955H49.2402ZM35.0302 10.2035L33.8822 12.3175C33.5322 12.9615 32.9302 13.4235 32.2162 13.6055L28.8002 14.4455C27.8902 14.6695 26.9522 14.7815 26.0142 14.7815C25.0762 14.7815 24.1382 14.6695 23.2142 14.4455L19.7982 13.6055C19.0842 13.4235 18.4822 12.9615 18.1322 12.3175L16.9842 10.2035C16.6762 9.62955 16.6342 8.94355 16.8862 8.32755L17.2642 7.40355C17.5302 6.75955 18.1742 6.32555 18.8742 6.32555H33.1402C33.8402 6.32555 34.4842 6.74555 34.7502 7.40355L35.1282 8.32755C35.3802 8.92955 35.3382 9.61555 35.0302 10.2035ZM27.5117 9.82582C27.5117 8.55182 28.5477 7.51582 29.8217 7.51582C31.0957 7.51582 32.1317 8.55182 32.1317 9.82582C32.1317 11.0998 31.0957 12.1358 29.8217 12.1358C28.5477 12.1358 27.5117 11.0998 27.5117 9.82582ZM33.1714 21.1797C36.2794 21.1797 39.0233 23.2377 39.8913 26.2197L41.7253 32.5337C43.5453 38.8057 38.8554 45.0777 32.3174 45.0777H19.6894C13.1654 45.0777 8.46135 38.8057 10.2814 32.5337L12.1154 26.2197C12.9834 23.2377 15.7274 21.1797 18.8354 21.1797H33.1714ZM19.8664 9.82582C19.8664 8.55182 20.9024 7.51582 22.1764 7.51582C23.4504 7.51582 24.4864 8.55182 24.4864 9.82582C24.4864 11.0998 23.4504 12.1358 22.1764 12.1358C20.9024 12.1358 19.8664 11.0998 19.8664 9.82582Z" fill="url(#paint0_radial_5571_10558)"/>
</g>
<path d="M44.8862 7.80955L44.3889 7.86189L44.436 8.30955H44.8862V7.80955ZM37.5642 4.99555L37.8838 4.61101L37.8803 4.6082L37.5642 4.99555ZM34.9742 2.88155L34.6575 3.26853L34.658 3.2689L34.9742 2.88155ZM16.9982 2.89555L17.3141 3.28309L17.3152 3.28222L16.9982 2.89555ZM14.4222 4.99555L14.7363 5.38452L14.7381 5.38309L14.4222 4.99555ZM7.08616 7.80955V8.30955H7.53629L7.58341 7.86189L7.08616 7.80955ZM7.04416 12.0095H7.54416V11.5095H7.04416V12.0095ZM15.7942 16.5595L15.353 16.7948L15.3544 16.7976L15.7942 16.5595ZM19.8402 18.9815L19.9001 18.4851L19.8702 18.4815H19.8402V18.9815ZM24.7122 19.5695L24.7761 19.0736L24.7721 19.0731L24.7122 19.5695ZM27.2882 19.5695L27.3363 20.0674L27.3481 20.0659L27.2882 19.5695ZM32.1602 18.9815V18.4815H32.1301L32.1002 18.4851L32.1602 18.9815ZM36.1782 16.6295L36.6131 16.8763L36.6148 16.8731L36.1782 16.6295ZM44.9702 12.0095V11.5095H44.4702V12.0095H44.9702ZM33.8822 12.3175L34.3215 12.5563L34.3215 12.5562L33.8822 12.3175ZM35.0302 10.2035L35.4696 10.4422L35.4731 10.4356L35.0302 10.2035ZM32.2162 13.6055L32.3356 14.0911L32.3397 14.0901L32.2162 13.6055ZM28.8002 14.4455L28.6808 13.96L28.6807 13.96L28.8002 14.4455ZM23.2142 14.4455L23.0948 14.9311L23.0964 14.9315L23.2142 14.4455ZM19.7982 13.6055L19.6747 14.0901L19.6788 14.0911L19.7982 13.6055ZM18.1322 12.3175L17.6928 12.5562L17.6928 12.5563L18.1322 12.3175ZM16.9842 10.2035L16.5436 10.44L16.5448 10.4422L16.9842 10.2035ZM16.8862 8.32755L17.3489 8.51686L17.3489 8.51686L16.8862 8.32755ZM17.2642 7.40355L16.802 7.21267L16.8014 7.21423L17.2642 7.40355ZM34.7502 7.40355L34.2866 7.59094L34.2874 7.59286L34.7502 7.40355ZM35.1282 8.32755L34.6654 8.51687L34.6669 8.52062L35.1282 8.32755ZM39.8913 26.2197L40.3715 26.0802L40.3714 26.0799L39.8913 26.2197ZM41.7253 32.5337L42.2055 32.3943L42.2055 32.3942L41.7253 32.5337ZM10.2814 32.5337L9.8012 32.3942L9.80116 32.3943L10.2814 32.5337ZM12.1154 26.2197L11.6353 26.0799L11.6352 26.0802L12.1154 26.2197ZM44.8862 8.30955H49.2402V7.30955H44.8862V8.30955ZM43.3182 6.86755C43.8706 6.86755 44.3298 7.30034 44.3889 7.86189L45.3834 7.7572C45.2745 6.72275 44.4178 5.86755 43.3182 5.86755V6.86755ZM41.4002 6.86755H43.3182V5.86755H41.4002V6.86755ZM37.2446 5.38007C38.415 6.3529 39.8869 6.86755 41.4002 6.86755V5.86755C40.1134 5.86755 38.8693 5.4302 37.8838 4.61103L37.2446 5.38007ZM34.658 3.2689L37.248 5.3829L37.8803 4.6082L35.2903 2.4942L34.658 3.2689ZM29.5002 1.43555C31.3742 1.43555 33.208 2.08251 34.6575 3.26853L35.2908 2.49457C33.6604 1.16059 31.6022 0.435547 29.5002 0.435547V1.43555ZM22.5142 1.43555H29.5002V0.435547H22.5142V1.43555ZM17.3152 3.28222C18.778 2.08292 20.6255 1.43555 22.5142 1.43555V0.435547C20.3988 0.435547 18.3263 1.16017 16.6812 2.50888L17.3152 3.28222ZM14.7381 5.38309L17.3141 3.28309L16.6822 2.50801L14.1062 4.60801L14.7381 5.38309ZM10.5722 6.86755C12.0891 6.86755 13.5574 6.33673 14.7363 5.38452L14.108 4.60658C13.1029 5.41837 11.8552 5.86755 10.5722 5.86755V6.86755ZM8.65416 6.86755H10.5722V5.86755H8.65416V6.86755ZM7.58341 7.86189C7.64282 7.29746 8.09052 6.86755 8.65416 6.86755V5.86755C7.5378 5.86755 6.69749 6.72563 6.5889 7.7572L7.58341 7.86189ZM2.76016 8.30955H7.08616V7.30955H2.76016V8.30955ZM1.16016 9.90955C1.16016 9.02369 1.8743 8.30955 2.76016 8.30955V7.30955C1.32201 7.30955 0.160156 8.4714 0.160156 9.90955H1.16016ZM2.76016 11.5095C1.8743 11.5095 1.16016 10.7954 1.16016 9.90955H0.160156C0.160156 11.3477 1.32201 12.5095 2.76016 12.5095V11.5095ZM7.04416 11.5095H2.76016V12.5095H7.04416V11.5095ZM7.54416 12.5135V12.0095H6.54416V12.5135H7.54416ZM8.65416 13.6235C8.0483 13.6235 7.54416 13.1194 7.54416 12.5135H6.54416C6.54416 13.6717 7.49601 14.6235 8.65416 14.6235V13.6235ZM11.8742 13.6235H8.65416V14.6235H11.8742V13.6235ZM16.2353 16.3243C15.3729 14.7071 13.7421 13.6235 11.8742 13.6235V14.6235C13.3383 14.6235 14.6475 15.472 15.353 16.7948L16.2353 16.3243ZM19.8402 18.4815C18.3295 18.4815 16.9724 17.6859 16.2339 16.3215L15.3544 16.7976C16.2679 18.4851 17.9628 19.4815 19.8402 19.4815V18.4815ZM24.7721 19.0731L19.9001 18.4851L19.7802 19.4779L24.6522 20.0659L24.7721 19.0731ZM26.0002 19.1395C25.59 19.1395 25.1799 19.1258 24.7761 19.0737L24.6482 20.0654C25.1124 20.1253 25.5703 20.1395 26.0002 20.1395V19.1395ZM27.24 19.0719C26.8158 19.1129 26.3988 19.1395 26.0002 19.1395V20.1395C26.4415 20.1395 26.8925 20.1102 27.3363 20.0672L27.24 19.0719ZM32.1002 18.4851L27.2282 19.0731L27.3481 20.0659L32.2201 19.4779L32.1002 18.4851ZM35.7433 16.3828C35.0051 17.684 33.6442 18.4815 32.1602 18.4815V19.4815C34.0081 19.4815 35.6992 18.4871 36.6131 16.8763L35.7433 16.3828ZM40.1402 13.6235C38.2132 13.6235 36.6218 14.8076 35.7415 16.386L36.6148 16.8731C37.3586 15.5395 38.6511 14.6235 40.1402 14.6235V13.6235ZM43.3602 13.6235H40.1402V14.6235H43.3602V13.6235ZM44.4702 12.5135C44.4702 13.1194 43.966 13.6235 43.3602 13.6235V14.6235C44.5183 14.6235 45.4702 13.6717 45.4702 12.5135H44.4702ZM44.4702 12.0095V12.5135H45.4702V12.0095H44.4702ZM49.2542 11.5095H44.9702V12.5095H49.2542V11.5095ZM50.8542 9.90955C50.8542 10.7954 50.14 11.5095 49.2542 11.5095V12.5095C50.6923 12.5095 51.8542 11.3477 51.8542 9.90955H50.8542ZM49.2542 8.30955C50.14 8.30955 50.8542 9.02369 50.8542 9.90955H51.8542C51.8542 8.4714 50.6923 7.30955 49.2542 7.30955V8.30955ZM49.2402 8.30955H49.2542V7.30955H49.2402V8.30955ZM34.3215 12.5562L35.4696 10.4422L34.5908 9.96494L33.4428 12.0789L34.3215 12.5562ZM32.3397 14.0901C33.1857 13.8744 33.9036 13.3252 34.3215 12.5563L33.4428 12.0788C33.1607 12.5979 32.6747 12.9727 32.0927 13.121L32.3397 14.0901ZM28.9196 14.9311L32.3356 14.0911L32.0968 13.12L28.6808 13.96L28.9196 14.9311ZM26.0142 15.2815C26.9918 15.2815 27.9699 15.1648 28.9197 14.9311L28.6807 13.96C27.8104 14.1743 26.9125 14.2815 26.0142 14.2815V15.2815ZM23.0964 14.9315C24.0587 15.1648 25.0362 15.2815 26.0142 15.2815V14.2815C25.1161 14.2815 24.2176 14.1743 23.332 13.9596L23.0964 14.9315ZM19.6788 14.0911L23.0948 14.9311L23.3336 13.96L19.9176 13.12L19.6788 14.0911ZM17.6928 12.5563C18.1107 13.3252 18.8287 13.8744 19.6747 14.0901L19.9217 13.121C19.3396 12.9727 18.8536 12.5979 18.5715 12.0788L17.6928 12.5563ZM16.5448 10.4422L17.6928 12.5562L18.5716 12.0789L17.4235 9.96494L16.5448 10.4422ZM16.4234 8.13823C16.1142 8.89405 16.1659 9.7361 16.5436 10.44L17.4247 9.96714C17.1864 9.52299 17.1541 8.99305 17.3489 8.51686L16.4234 8.13823ZM16.8014 7.21423L16.4234 8.13823L17.3489 8.51686L17.7269 7.59286L16.8014 7.21423ZM18.8742 5.82555C17.9707 5.82555 17.1449 6.38256 16.802 7.21267L17.7263 7.59443C17.9154 7.13653 18.3776 6.82555 18.8742 6.82555V5.82555ZM33.1402 5.82555H18.8742V6.82555H33.1402V5.82555ZM35.2137 7.21615C34.8693 6.36422 34.0385 5.82555 33.1402 5.82555V6.82555C33.6418 6.82555 34.099 7.12687 34.2866 7.59094L35.2137 7.21615ZM35.5909 8.13823L35.2129 7.21423L34.2874 7.59286L34.6654 8.51686L35.5909 8.13823ZM35.4731 10.4356C35.8462 9.72329 35.9021 8.88158 35.5894 8.13448L34.6669 8.52062C34.8582 8.97751 34.8302 9.50781 34.5872 9.97154L35.4731 10.4356ZM29.8217 7.01582C28.2716 7.01582 27.0117 8.27568 27.0117 9.82582H28.0117C28.0117 8.82796 28.8239 8.01582 29.8217 8.01582V7.01582ZM32.6317 9.82582C32.6317 8.27568 31.3719 7.01582 29.8217 7.01582V8.01582C30.8196 8.01582 31.6317 8.82796 31.6317 9.82582H32.6317ZM29.8217 12.6358C31.3719 12.6358 32.6317 11.376 32.6317 9.82582H31.6317C31.6317 10.8237 30.8196 11.6358 29.8217 11.6358V12.6358ZM27.0117 9.82582C27.0117 11.376 28.2716 12.6358 29.8217 12.6358V11.6358C28.8239 11.6358 28.0117 10.8237 28.0117 9.82582H27.0117ZM40.3714 26.0799C39.4412 22.8843 36.5014 20.6797 33.1714 20.6797V21.6797C36.0573 21.6797 38.6055 23.5911 39.4113 26.3594L40.3714 26.0799ZM42.2055 32.3942L40.3715 26.0802L39.4112 26.3592L41.2452 32.6732L42.2055 32.3942ZM32.3174 45.5777C39.1897 45.5777 44.118 38.985 42.2055 32.3943L41.2452 32.673C42.9727 38.6264 38.521 44.5777 32.3174 44.5777V45.5777ZM19.6894 45.5777H32.3174V44.5777H19.6894V45.5777ZM9.80116 32.3943C7.88856 38.9855 12.8315 45.5777 19.6894 45.5777V44.5777C13.4992 44.5777 9.03415 38.6259 10.7615 32.673L9.80116 32.3943ZM11.6352 26.0802L9.8012 32.3942L10.7615 32.6732L12.5955 26.3592L11.6352 26.0802ZM18.8354 20.6797C15.5053 20.6797 12.5655 22.8843 11.6353 26.0799L12.5954 26.3594C13.4012 23.5911 15.9494 21.6797 18.8354 21.6797V20.6797ZM33.1714 20.6797H18.8354V21.6797H33.1714V20.6797ZM22.1764 7.01582C20.6263 7.01582 19.3664 8.27568 19.3664 9.82582H20.3664C20.3664 8.82796 21.1786 8.01582 22.1764 8.01582V7.01582ZM24.9864 9.82582C24.9864 8.27568 23.7266 7.01582 22.1764 7.01582V8.01582C23.1743 8.01582 23.9864 8.82796 23.9864 9.82582H24.9864ZM22.1764 12.6358C23.7266 12.6358 24.9864 11.376 24.9864 9.82582H23.9864C23.9864 10.8237 23.1743 11.6358 22.1764 11.6358V12.6358ZM19.3664 9.82582C19.3664 11.376 20.6263 12.6358 22.1764 12.6358V11.6358C21.1786 11.6358 20.3664 10.8237 20.3664 9.82582H19.3664Z" fill="url(#paint1_linear_5571_10558)" mask="url(#path-1-inside-1_5571_10558)"/>
<defs>
<filter id="filter0_i_5571_10558" x="-1.33984" y="-1.06445" width="52.6938" height="46.1426" filterUnits="userSpaceOnUse" color-interpolation-filters="sRGB">
<feFlood flood-opacity="0" result="BackgroundImageFix"/>
<feBlend mode="normal" in="SourceGraphic" in2="BackgroundImageFix" result="shape"/>
<feColorMatrix in="SourceAlpha" type="matrix" values="0 0 0 0 0 0 0 0 0 0 0 0 0 0 0 0 0 0 127 0" result="hardAlpha"/>
<feOffset dx="-2" dy="-2"/>
<feGaussianBlur stdDeviation="1"/>
<feComposite in2="hardAlpha" operator="arithmetic" k2="-1" k3="1"/>
<feColorMatrix type="matrix" values="0 0 0 0 0.185243 0 0 0 0 0.653528 0 0 0 0 0.808333 0 0 0 0.45 0"/>
<feBlend mode="normal" in2="shape" result="effect1_innerShadow_5571_10558"/>
</filter>
<radialGradient id="paint0_radial_5571_10558" cx="0" cy="0" r="1" gradientUnits="userSpaceOnUse" gradientTransform="translate(2.04379 3.69622) rotate(45) scale(61.866 71.0486)">
<stop stop-color="#44FFCE"/>
<stop offset="0.371684" stop-color="#0DC5D4"/>
<stop offset="1" stop-color="#2270AA"/>
</radialGradient>
<linearGradient id="paint1_linear_5571_10558" x1="47.8161" y1="43.1881" x2="3.21567" y2="-3.27065" gradientUnits="userSpaceOnUse">
<stop stop-color="#50F5D5"/>
<stop offset="1" stop-color="white" stop-opacity="0"/>
</linearGradient>
</defs>
</svg>
